{
  "accessors": [
    {
      "bufferView": 2,
      "componentType": 5126,
      "count": 1265,
      "max": [
        3.863257884979248,
        3.863257646560669,
        0.6967569589614868
      ],
      "min": [
        -3.863255023956299,
        -3.8632566928863525,
        -6.406498908996582
      ],
      "type": "VEC3"
    },
    {
      "bufferView": 2,
      "byteOffset": 15180,
      "componentType": 5126,
      "count": 1265,
      "max": [
        0.9991922378540039,
        0.9991922378540039,
        0.9999976754188538
      ],
      "min": [
        -0.9991921782493591,
        -0.9991922378540039,
        -1.0
      ],
      "type": "VEC3"
    },
    {
      "bufferView": 1,
      "componentType": 5126,
      "count": 1265,
      "max": [
        0.9573584794998169,
        0.9995840787887573
      ],
      "min": [
        0.0004158245865255594,
        0.0004158245865255594
      ],
      "type": "VEC2"
    },
    {
      "bufferView": 0,
      "componentType": 5125,
      "count": 5172,
      "type": "SCALAR"
    },
    {
      "bufferView": 2,
      "byteOffset": 30360,
      "componentType": 5126,
      "count": 999,
      "max": [
        6.739150047302246,
        5.1579484939575195,
        0.3680325448513031
      ],
      "min": [
        -4.332080841064453,
        -4.1648054122924805,
        -12.940190315246582
      ],
      "type": "VEC3"
    },
    {
      "bufferView": 2,
      "byteOffset": 42348,
      "componentType": 5126,
      "count": 999,
      "max": [
        0.999891996383667,
        0.9999579787254333,
        0.9981070756912231
      ],
      "min": [
        -0.999891996383667,
        -0.9999579787254333,
        -1.0
      ],
      "type": "VEC3"
    },
    {
      "bufferView": 1,
      "byteOffset": 10120,
      "componentType": 5126,
      "count": 999,
      "max": [
        1.0,
        0.988641083240509
      ],
      "min": [
        0.0,
        0.0
      ],
      "type": "VEC2"
    },
    {
      "bufferView": 0,
      "byteOffset": 20688,
      "componentType": 5125,
      "count": 4446,
      "type": "SCALAR"
    },
    {
      "bufferView": 2,
      "byteOffset": 54336,
      "componentType": 5126,
      "count": 661,
      "max": [
        1.0426939725875854,
        10.91752815246582,
        13.719121932983398
      ],
      "min": [
        -7.55061674118042,
        -7.339676856994629,
        -0.33300960063934326
      ],
      "type": "VEC3"
    },
    {
      "bufferView": 2,
      "byteOffset": 62268,
      "componentType": 5126,
      "count": 661,
      "max": [
        1.0,
        1.0,
        1.0
      ],
      "min": [
        -1.0,
        -1.0,
        -1.0
      ],
      "type": "VEC3"
    },
    {
      "bufferView": 1,
      "byteOffset": 18112,
      "componentType": 5126,
      "count": 661,
      "max": [
        0.9940508008003235,
        0.9787066578865051
      ],
      "min": [
        0.005141767207533121,
        0.0033767102286219597
      ],
      "type": "VEC2"
    },
    {
      "bufferView": 0,
      "byteOffset": 38472,
      "componentType": 5125,
      "count": 2220,
      "type": "SCALAR"
    }
  ],
  "asset": {
    "extras": {
      "author": "Reidicus (https://sketchfab.com/Reidicus)",
      "license": "CC-BY-4.0 (http://creativecommons.org/licenses/by/4.0/)",
      "source": "https://sketchfab.com/3d-models/cat-o-ween-0e840aba0d6643d39b542908531dd58e",
      "title": "Cat-O-Ween"
    },
    "generator": "Sketchfab-14.32.1",
    "version": "2.0"
  },
  "bufferViews": [
    {
      "buffer": 0,
      "byteLength": 47352,
      "name": "floatBufferViews",
      "target": 34963
    },
    {
      "buffer": 0,
      "byteLength": 23400,
      "byteOffset": 47352,
      "byteStride": 8,
      "name": "floatBufferViews",
      "target": 34962
    },
    {
      "buffer": 0,
      "byteLength": 70200,
      "byteOffset": 70752,
      "byteStride": 12,
      "name": "floatBufferViews",
      "target": 34962
    }
  ],
  "buffers": [
    {
      "byteLength": 140952,
      "uri": "scene.bin"
    }
  ],
  "extensionsUsed": [
    "KHR_materials_unlit"
  ],
  "images": [
    {
      "uri": "textures/Head_baseColor.png"
    },
    {
      "uri": "textures/Body_baseColor.png"
    },
    {
      "uri": "textures/Props.001_baseColor.png"
    }
  ],
  "materials": [
    {
      "doubleSided": true,
      "extensions": {
        "KHR_materials_unlit": {}
      },
      "name": "Head",
      "pbrMetallicRoughness": {
        "baseColorTexture": {
          "index": 0
        },
        "metallicFactor": 0.0
      }
    },
    {
      "doubleSided": true,
      "extensions": {
        "KHR_materials_unlit": {}
      },
      "name": "Body",
      "pbrMetallicRoughness": {
        "baseColorTexture": {
          "index": 1
        },
        "metallicFactor": 0.0
      }
    },
    {
      "doubleSided": true,
      "extensions": {
        "KHR_materials_unlit": {}
      },
      "name": "Props.001",
      "pbrMetallicRoughness": {
        "baseColorTexture": {
          "index": 2
        },
        "metallicFactor": 0.0
      }
    }
  ],
  "meshes": [
    {
      "name": "Cylinder.027_Head_0",
      "primitives": [
        {
          "attributes": {
            "NORMAL": 1,
            "POSITION": 0,
            "TEXCOORD_0": 2
          },
          "indices": 3,
          "material": 0,
          "mode": 4
        }
      ]
    },
    {
      "name": "Cube.023_Body_0",
      "primitives": [
        {
          "attributes": {
            "NORMAL": 5,
            "POSITION": 4,
            "TEXCOORD_0": 6
          },
          "indices": 7,
          "material": 1,
          "mode": 4
        }
      ]
    },
    {
      "name": "Cube.025_Props.001_0",
      "primitives": [
        {
          "attributes": {
            "NORMAL": 9,
            "POSITION": 8,
            "TEXCOORD_0": 10
          },
          "indices": 11,
          "material": 2,
          "mode": 4
        }
      ]
    }
  ],
  "nodes": [
    {
      "children": [
        1
      ],
      "matrix": [
        1.0,
        0.0,
        0.0,
        0.0,
        0.0,
        2.220446049250313e-16,
        -1.0,
        0.0,
        0.0,
        1.0,
        2.220446049250313e-16,
        0.0,
        0.0,
        0.0,
        0.0,
        1.0
      ],
      "name": "Sketchfab_model"
    },
    {
      "children": [
        2
      ],
      "matrix": [
        0.009999999776482582,
        0.0,
        0.0,
        0.0,
        0.0,
        0.0,
        0.009999999776482582,
        0.0,
        0.0,
        -0.009999999776482582,
        0.0,
        0.0,
        0.0,
        0.0,
        0.0,
        1.0
      ],
      "name": "048ba8cdb0aa41019b27ea4c668a9728.fbx"
    },
    {
      "children": [
        3,
        5,
        7
      ],
      "name": "RootNode"
    },
    {
      "children": [
        4
      ],
      "matrix": [
        100.0,
        0.0,
        0.0,
        0.0,
        0.0,
        -1.629206793918314e-05,
        -99.99999999999868,
        0.0,
        0.0,
        99.99999999999868,
        -1.629206793918314e-05,
        0.0,
        0.0,
        465.24542236328125,
        -9000.0,
        1.0
      ],
      "name": "Cylinder.027"
    },
    {
      "mesh": 0,
      "name": "Cylinder.027_Head_0"
    },
    {
      "children": [
        6
      ],
      "matrix": [
        100.0,
        0.0,
        0.0,
        0.0,
        0.0,
        -1.629206793918314e-05,
        -99.99999999999868,
        0.0,
        0.0,
        99.99999999999868,
        -1.629206793918314e-05,
        0.0,
        0.0,
        344.0947570800781,
        -9000.0,
        1.0
      ],
      "name": "Cube.023"
    },
    {
      "mesh": 1,
      "name": "Cube.023_Body_0"
    },
    {
      "children": [
        8
      ],
      "matrix": [
        41.74029187031478,
        -8.888821777213437,
        31.5807172926586,
        0.0,
        4.997338554971586,
        52.23106891650682,
        8.096152174236005,
        0.0,
        -32.42498454802066,
        -3.39262372090391,
        41.901261426388864,
        0.0,
        522.141357421875,
        -239.6678009033203,
        -8834.4072265625,
        1.0
      ],
      "name": "Cube.025"
    },
    {
      "mesh": 2,
      "name": "Cube.025_Props.001_0"
    }
  ],
  "samplers": [
    {
      "magFilter": 9729,
      "minFilter": 9987,
      "wrapS": 10497,
      "wrapT": 10497
    }
  ],
  "scene": 0,
  "scenes": [
    {
      "name": "Sketchfab_Scene",
      "nodes": [
        0
      ]
    }
  ],
  "textures": [
    {
      "sampler": 0,
      "source": 0
    },
    {
      "sampler": 0,
      "source": 1
    },
    {
      "sampler": 0,
      "source": 2
    }
  ]
}
