{
  "accessors": [
    {
      "bufferView": 2,
      "componentType": 5126,
      "count": 26841,
      "max": [
        73.60424041748047,
        5.854736328125,
        190.80458068847656
      ],
      "min": [
        -71.792724609375,
        -149.84751892089844,
        -25.373733520507813
      ],
      "type": "VEC3"
    },
    {
      "bufferView": 2,
      "byteOffset": 322092,
      "componentType": 5126,
      "count": 26841,
      "max": [
        1.0,
        1.0,
        1.0
      ],
      "min": [
        -1.0,
        -1.0,
        -1.0
      ],
      "type": "VEC3"
    },
    {
      "bufferView": 3,
      "componentType": 5126,
      "count": 26841,
      "max": [
        1.0,
        1.0,
        1.0,
        1.0
      ],
      "min": [
        -1.0,
        -1.0,
        -1.0,
        -1.0
      ],
      "type": "VEC4"
    },
    {
      "bufferView": 1,
      "componentType": 5126,
      "count": 26841,
      "max": [
        0.9867644906044006,
        0.9947357177734375
      ],
      "min": [
        0.005264222621917725,
        0.011926889419555664
      ],
      "type": "VEC2"
    },
    {
      "bufferView": 1,
      "byteOffset": 214728,
      "componentType": 5126,
      "count": 26841,
      "max": [
        0.9867644906044006,
        0.9947357177734375
      ],
      "min": [
        0.005264222621917725,
        0.011926889419555664
      ],
      "type": "VEC2"
    },
    {
      "bufferView": 0,
      "componentType": 5125,
      "count": 31707,
      "type": "SCALAR"
    }
  ],
  "asset": {
    "extras": {
      "author": "m3org (https://sketchfab.com/m3org)",
      "license": "CC-BY-4.0 (http://creativecommons.org/licenses/by/4.0/)",
      "source": "https://sketchfab.com/3d-models/anarchy-arcade-booth-e11621f616b44886be3e72c1476cd5f2",
      "title": "Anarchy Arcade Booth"
    },
    "generator": "Sketchfab-14.10.0",
    "version": "2.0"
  },
  "bufferViews": [
    {
      "buffer": 0,
      "byteLength": 126828,
      "name": "floatBufferViews",
      "target": 34963
    },
    {
      "buffer": 0,
      "byteLength": 429456,
      "byteOffset": 126828,
      "byteStride": 8,
      "name": "floatBufferViews",
      "target": 34962
    },
    {
      "buffer": 0,
      "byteLength": 644184,
      "byteOffset": 556284,
      "byteStride": 12,
      "name": "floatBufferViews",
      "target": 34962
    },
    {
      "buffer": 0,
      "byteLength": 429456,
      "byteOffset": 1200468,
      "byteStride": 16,
      "name": "floatBufferViews",
      "target": 34962
    }
  ],
  "buffers": [
    {
      "byteLength": 1629924,
      "uri": "scene.bin"
    }
  ],
  "images": [
    {
      "uri": "textures/aarcade_baseColor.png"
    },
    {
      "uri": "textures/aarcade_normal.png"
    }
  ],
  "materials": [
    {
      "alphaMode": "MASK",
      "doubleSided": true,
      "name": "aarcade",
      "normalTexture": {
        "index": 1
      },
      "pbrMetallicRoughness": {
        "baseColorTexture": {
          "index": 0
        },
        "metallicFactor": 0.0314961
      }
    }
  ],
  "meshes": [
    {
      "name": "Object_0",
      "primitives": [
        {
          "attributes": {
            "NORMAL": 1,
            "POSITION": 0,
            "TANGENT": 2,
            "TEXCOORD_0": 3,
            "TEXCOORD_1": 4
          },
          "indices": 5,
          "material": 0,
          "mode": 4
        }
      ]
    }
  ],
  "nodes": [
    {
      "children": [
        1
      ],
      "matrix": [
        1.0,
        0.0,
        0.0,
        0.0,
        0.0,
        2.220446049250313e-16,
        -1.0,
        0.0,
        0.0,
        1.0,
        2.220446049250313e-16,
        0.0,
        0.0,
        0.0,
        0.0,
        1.0
      ],
      "name": "Sketchfab_model"
    },
    {
      "children": [
        2
      ],
      "name": "root"
    },
    {
      "children": [
        3
      ],
      "matrix": [
        1.0,
        0.0,
        0.0,
        0.0,
        0.0,
        2.220446049250313e-16,
        1.0,
        0.0,
        0.0,
        -1.0,
        2.220446049250313e-16,
        0.0,
        0.0,
        0.0,
        0.0,
        1.0
      ],
      "name": "GLTF_SceneRootNode"
    },
    {
      "children": [
        4
      ],
      "matrix": [
        0.02729024924337864,
        0.0,
        0.0,
        0.0,
        0.0,
        -4.282119516290986e-09,
        0.02539999783039057,
        0.0,
        0.0,
        -0.019271174445748055,
        -3.2488771356212737e-09,
        0.0,
        0.16997480392456055,
        3.669785976409912,
        1.8154796361923218,
        1.0
      ],
      "name": "aarcade_booth_0"
    },
    {
      "mesh": 0,
      "name": "Object_4"
    }
  ],
  "samplers": [
    {
      "magFilter": 9729,
      "minFilter": 9987,
      "wrapS": 10497,
      "wrapT": 10497
    }
  ],
  "scene": 0,
  "scenes": [
    {
      "name": "Sketchfab_Scene",
      "nodes": [
        0
      ]
    }
  ],
  "textures": [
    {
      "sampler": 0,
      "source": 0
    },
    {
      "sampler": 0,
      "source": 1
    }
  ]
}
